<svg xmlns="http://www.w3.org/2000/svg" viewBox="0 0 512 512"><g fill="#fff"><path d="M128.037 66.358c0-5.144 2-9.98 5.641-13.616l18.765-18.687 11.386-11.198-.122-.016.145-.14L34.643 4.818.16.002l.004.043L0 .021l13.999 101.926 8.394 61.845.086-.086.031.199 30.139-30.139c7.508-7.507 19.73-7.507 27.238 0l84.562 84.645 53.83-53.83-84.602-84.602a19.133 19.133 0 01-5.64-13.621zM489.583 348.232l-.086.086-.027-.203-30.139 30.139c-7.511 7.511-19.73 7.511-27.241 0l-84.558-84.644-53.603 53.602-.118.114-.109.117 84.598 84.602a19.125 19.125 0 015.644 13.621c0 5.144-2.004 9.98-5.64 13.617l-18.792 18.71-11.363 11.172.122.019-.141.141 163.848 22.674-13.999-101.941-8.396-61.826zM293.702 164.58l53.83 53.83 84.558-84.645c7.511-7.507 19.73-7.507 27.241 0l18.71 18.71 11.269 11.41.019-.121.141.14L507.195 34.84 512 .182l-.043.003.02-.164L410.055 14.13l-61.814 8.457.086.086-.199.027 30.174 30.042a19.131 19.131 0 015.64 13.616c0 5.145-2.004 9.98-5.644 13.621l-84.596 84.601zM218.279 347.443l-53.83-53.833-84.562 84.644c-7.508 7.511-19.73 7.511-27.238 0l-18.772-18.769-11.21-11.346-.016.121-.141-.145L0 511.998l101.835-14.093 61.903-8.469-.086-.086.199-.027-30.174-30.042a19.116 19.116 0 01-5.641-13.617c0-5.148 2-9.984 5.641-13.621l84.602-84.6z"/></g></svg>