<svg xmlns="http://www.w3.org/2000/svg" viewBox="0 0 512 512"><g fill="#fff"><path d="M90.25 152.058a19.12 19.12 0 01-5.645 13.618L65.89 184.313l-11.438 11.25.122.016-.145.14 163.859 22.68L204.3 116.555l-8.406-61.934-.086.086-.027-.199-30.145 30.141c-7.508 7.507-19.73 7.507-27.238 0L54.168.336 53.946.11v.004L53.832 0 0 53.832l84.606 84.606a19.135 19.135 0 015.644 13.62zM421.754 359.938c0-5.145 2.004-9.981 5.641-13.618l18.73-18.648 11.422-11.234-.118-.02.141-.14-129.422-17.914-34.278-4.785.004.042-.164-.023 13.957 101.621 8.442 62.157.086-.086.027.199 30.141-30.14c7.512-7.508 19.73-7.508 27.238 0L458.168 512 512 458.164l-84.606-84.606a19.14 19.14 0 01-5.64-13.62zM457.457 195.832l-.086-.086.199-.028-30.176-30.042a19.133 19.133 0 01-5.641-13.618c0-5.144 2.004-9.98 5.641-13.621L512 53.832 458.398.226l-.117-.117v.004L458.168 0l-84.566 84.649c-7.508 7.507-19.726 7.507-27.238 0L327.57 65.855l-11.191-11.324-.016.118-.141-.141-22.511 163.89 102.164-14.141 61.582-8.425zM218.266 293.766l.023-.168-102.277 14.156-61.469 8.41.086.086-.199.027 30.176 30.042c3.641 3.637 5.645 8.473 5.645 13.618s-2.004 9.984-5.645 13.621L.297 457.871l-.183.179-.114.114L53.832 512l84.566-84.652c7.508-7.508 19.73-7.508 27.238 0l18.73 18.726 11.254 11.394.02-.121.141.14 17.683-128.766 4.848-34.965-.046.01z"/></g></svg>